<svg xmlns="http://www.w3.org/2000/svg" width="44" height="45" fill="none" xmlns:v="https://vecta.io/nano"><path d="M22.008 42.557L.291 14.915l8.335-12.5h26.972l8.335 12.5-21.925 27.642z" fill="url(#B)"/><path d="M22.037 37.002L6.365 17.053l6.015-9.021h19.465l6.015 9.021-15.823 19.948z" fill="#092c4e"/><path d="M22.037 35.412L6.365 15.464l6.015-9.021h19.465l6.015 9.021-15.823 19.948z" fill="#5190c5"/><path d="M21.974 32.673L6.365 15.414l6.043-8.935h19.465l5.987 8.935-15.887 17.259z" fill="url(#C)"/><path d="M15.627 29.015c.846-.198 1.008-.36 1.206-1.206.198.846.36 1.008 1.206 1.206-.846.198-1.008.36-1.206 1.206-.198-.846-.36-1.008-1.206-1.206z" fill="#f8ffff"/><path d="M12.414 6.488L8.604 2.43.276 14.949l6.081.504 6.056-8.965z" fill="url(#D)" fill-opacity=".49"/><path d="M7.006 16.271l-.637-.83 6.03-8.967 1.305.033-6.698 9.764z" fill="#f8ffff" fill-opacity=".4"/><path d="M31.766 6.488l3.81-4.058 8.365 12.498-6.201 2.109-.577-.807.659-.777-6.056-8.965z" fill="#fff" fill-opacity=".2"/><path d="M37.154 16.25l.657-.808-6.03-8.967-1.305.033 6.679 9.742z" fill="#f8ffff" fill-opacity=".4"/><g filter="url(#A)"><path d="M26.622 6.072c2.505-.591 2.983-1.064 3.57-3.57.591 2.505 1.064 2.983 3.57 3.57-2.506.591-2.983 1.065-3.57 3.57-.591-2.506-1.065-2.983-3.57-3.57z" fill="#fff"/></g><path d="M26.406 15.698l-3.054-5.292c-.516-.893-1.806-.893-2.323 0l-2.115 3.668-1.172-.313c-.872-.237-1.675.567-1.438 1.443l.732 2.729c-.241 1.68.41 3.439 1.62 4.62 1.629 1.916 4.873 2.373 6.781.338a4.3 4.3 0 0 0 .495-.55c1.612-1.756 2.073-4.582.474-6.646v.004zm-4.213 6.007c-1.84.059-2.978-2.217-1.866-3.655l1.349-2.34c.228-.398.799-.398 1.028 0l1.354 2.34c1.108 1.434-.03 3.714-1.866 3.655z" fill="url(#E)"/><path d="M19.189 10.761l-.563.745c-.135.178-.402.178-.537 0l-.563-.745c-.089-.118-.089-.284 0-.402l.563-.745c.135-.178.402-.178.537 0l.563.745c.089.118.089.283 0 .402zm3.448-2.526l-.3.398c-.072.097-.216.097-.288 0l-.3-.398c-.046-.063-.046-.152 0-.216l.3-.398c.072-.097.216-.097.288 0l.3.398c.047.063.047.152 0 .216z" fill="#9fd0f9"/><path d="M22.021 42.559l-.034-9.845 15.243-16.591.598.885 6.098-2.071-21.905 27.623z" fill="#fff" fill-opacity=".15"/><path d="M21.905 42.294l.034-9.845L6.696 15.858l-.598.885L0 14.671l21.905 27.623z" fill="#1d1e23" fill-opacity=".21"/><path d="M6.375 17.048l-.003-1.625.64.86-.637.765z" fill="#092c4e"/><path d="M2.391 17.654l7.171-2.338-7.657-2.813-1.608 2.401 2.094 2.75z" fill="#e6f4fc"/><path d="M2.431 17.641l7.131-2.29-9.271-.423 2.14 2.713z" fill="#245786"/><path d="M41.9 17.654l-7.171-2.338 7.657-2.813 1.608 2.401-2.094 2.75z" fill="#e5f3ff"/><path d="M41.86 17.641l-7.131-2.29L44 14.928l-2.14 2.713z" fill="#436e96"/><path d="M19.978 39.979l1.982-3.934 1.747 4.417-1.69 2.111-2.039-2.594z" fill="#dbedfa"/><path d="M19.948 40.009l2.012-3.94.038 6.49-2.049-2.551z" fill="#436e96"/><path opacity=".9" d="M21.331 8.841h-6.743l-4.046 6.358m12.716-6.178h1.717M19.468 26.73l2.661 2.957 6.226-7.15" stroke-opacity=".4" stroke="#fff" stroke-width="1.325" stroke-linecap="round"/><path d="M23.504 39.952l.194.471-1.696 2.162-.006-.83 1.508-1.802z" fill="#fff"/><path d="M23.647 40.29l.051.134-1.696 2.162-.004-.189 1.649-2.106z" fill="#3f86cc" fill-opacity=".3"/><defs><filter id="A" x="26.357" y="2.502" width="7.405" height="7.405" filterUnits="userSpaceOnUse" color-interpolation-filters="sRGB"><feFlood flood-opacity="0" result="A"/><feColorMatrix in="SourceAlpha" values="0 0 0 0 0 0 0 0 0 0 0 0 0 0 0 0 0 0 127 0" result="B"/><feOffset dx="-0.264906" dy="0.264906"/><feComposite in2="B" operator="out"/><feColorMatrix values="0 0 0 0 0.694118 0 0 0 0 0.796078 0 0 0 0 0.882353 0 0 0 0.2 0"/><feBlend in2="A"/><feBlend in="SourceGraphic"/></filter><linearGradient id="B" x1="22.112" y1="42.557" x2="22.112" y2="2.415" gradientUnits="userSpaceOnUse"><stop stop-color="#092c4e"/><stop offset="1" stop-color="#61b3fb"/></linearGradient><linearGradient id="C" x1="22.113" y1="33.494" x2="22.113" y2="7.237" gradientUnits="userSpaceOnUse"><stop stop-color="#aedeff"/><stop offset="1" stop-color="#e8f6ff" stop-opacity=".91"/></linearGradient><linearGradient id="D" x1="4.537" y1="6.867" x2="9.48" y2="11.65" gradientUnits="userSpaceOnUse"><stop stop-color="#10487f"/><stop offset="1" stop-color="#3275b6"/></linearGradient><linearGradient id="E" x1="21.833" y1="24.222" x2="21.833" y2="9.737" gradientUnits="userSpaceOnUse"><stop stop-color="#a2d4ff"/><stop offset="1" stop-color="#367ebc"/></linearGradient></defs></svg>